<svg width="131" height="64" viewBox="0 0 131 64" fill="none" xmlns="http://www.w3.org/2000/svg">
<g clip-path="url(#clip0_276_2602)">
<path d="M9.59481 55.2615H17.7274C21.0216 55.2615 22.667 53.8512 22.667 51.0698C22.667 48.3586 21.0205 47.0206 17.7274 47.0556H9.59481V55.2615ZM17.6652 30.9594H9.59481V38.1921H17.6652C18.2278 38.1921 18.9737 38.3335 20.364 37.1368C21.0183 36.5385 21.3814 35.6936 21.3814 34.5659C21.3814 32.3467 19.8407 31.1501 18.5779 31.0448L17.6652 30.9594ZM0 63.9968V22.2439H17.7274C18.1133 22.2439 18.5681 22.2767 19.1635 22.3128C20.226 22.4459 21.2792 22.6458 22.3171 22.9113C23.7322 23.2412 25.099 23.7541 26.3832 24.4366C27.6679 25.2259 28.7584 26.297 29.5729 27.5698C30.548 29.0894 31.0483 30.8676 31.0089 32.6754C30.9729 37.3603 28.9741 39.9314 27.188 41.0589C25.9286 41.9729 25.1926 42.2195 24.9472 42.2195C25.5637 42.3972 26.1617 42.634 26.7333 42.9263C27.5772 43.3866 28.3961 43.8914 29.1868 44.4387C31.395 45.8852 32.7853 48.5251 32.7853 51.7997C32.7853 59.9376 27.1782 64.0001 15.9641 63.987L0 63.9968Z" fill="#333333"/>
<path d="M75.924 33.4251H66.3228V63.9968H75.924V33.4251Z" fill="#333333"/>
<path d="M39.6582 0V27.0145H49.2595V9.64921H109.966V27.0145H119.567V0H39.6582Z" fill="#3AACE2"/>
<path d="M93.8642 33.4251H84.2627V63.9968H93.8642V33.4251Z" fill="#333333"/>
<path d="M119.796 33.4251L114.748 40.9275L109.74 33.4251H99.3303L109.599 48.6403L99.3303 63.9968H109.74L114.748 56.4944L119.796 63.9968H130.205L120.074 48.6403L130.205 33.4251H119.796Z" fill="#333333"/>
<path d="M65.6584 21.521C65.6556 20.8026 65.7994 20.0912 66.0806 19.4309C66.362 18.7705 66.7749 18.1749 67.2941 17.6811C67.7863 17.1622 68.3796 16.7509 69.037 16.4726C69.6943 16.1943 70.4016 16.0551 71.1148 16.0636C71.8331 16.0548 72.5454 16.1938 73.2081 16.472C73.8707 16.7501 74.4698 17.1616 74.9685 17.6811C75.4792 18.184 75.8849 18.7842 76.1618 19.4466C76.4389 20.1092 76.5815 20.8205 76.5815 21.5391C76.5815 22.2576 76.4389 22.969 76.1618 23.6315C75.8849 24.2939 75.4792 24.8941 74.9685 25.3972C74.4698 25.9166 73.8707 26.328 73.2081 26.6061C72.5454 26.8843 71.8331 27.0233 71.1148 27.0147C70.4016 27.0232 69.6943 26.8839 69.037 26.6055C68.3796 26.3272 67.7863 25.9159 67.2941 25.3972C66.7716 24.8982 66.3568 24.2967 66.0754 23.6298C65.7941 22.9631 65.652 22.2453 65.6584 21.521Z" fill="#3AACE2"/>
<path d="M83.5982 21.521C83.5954 20.8026 83.7392 20.0912 84.0205 19.4308C84.3018 18.7705 84.7148 18.1749 85.2339 17.681C85.7261 17.1622 86.3194 16.7509 86.9768 16.4725C87.6342 16.1942 88.3415 16.0551 89.0548 16.0636C89.7723 16.0552 90.4841 16.1945 91.1462 16.4727C91.8083 16.7509 92.4069 17.1621 92.9051 17.681C93.4159 18.1839 93.8215 18.7842 94.0986 19.4466C94.3755 20.1092 94.5181 20.8205 94.5181 21.539C94.5181 22.2576 94.3755 22.969 94.0986 23.6314C93.8215 24.2939 93.4159 24.8941 92.9051 25.3972C92.4065 25.9166 91.8074 26.3279 91.1447 26.6061C90.482 26.8843 89.7697 27.0233 89.0516 27.0147C88.3382 27.0231 87.6309 26.8838 86.9735 26.6055C86.3161 26.3272 85.7229 25.9158 85.2306 25.3972C84.7081 24.8981 84.2933 24.2967 84.012 23.6298C83.7306 22.963 83.5886 22.2452 83.5949 21.521" fill="#3AACE2"/>
<path d="M49.2595 38.3204V33.4251H39.6582V64H49.2595V51.3953C49.2595 47.0523 50.9377 40.4244 60.6143 42.2293V33.2837C50.1461 31.8799 49.2595 38.3204 49.2595 38.3204Z" fill="#333333"/>
</g>
<defs>
<clipPath id="clip0_276_2602">
<rect width="131" height="64" fill="white"/>
</clipPath>
</defs>
</svg>
